<svg version="1.0" xmlns="http://www.w3.org/2000/svg"
 width="512.000000pt" height="512.000000pt" viewBox="0 0 512.000000 512.000000"
 preserveAspectRatio="xMidYMid meet">

<g transform="translate(0.000000,512.000000) scale(0.100000,-0.100000)"
fill="white" stroke="none">
<path d="M3200 5103 c-141 -49 -229 -182 -218 -326 10 -115 79 -216 183 -267
l50 -25 404 -3 405 -3 -617 -617 c-695 -697 -671 -667 -671 -812 0 -92 23
-148 89 -219 63 -68 129 -95 225 -95 143 0 109 -29 807 667 l622 621 3 -405 3
-404 25 -50 c31 -64 92 -124 155 -155 41 -20 65 -24 135 -24 70 0 94 4 135 24
63 31 124 91 155 155 l25 50 0 835 0 835 -25 50 c-13 28 -43 68 -65 90 -22 22
-62 52 -90 65 l-50 25 -820 2 c-726 2 -825 0 -865 -14z"/>
<path d="M1985 2377 c-22 -8 -56 -22 -75 -31 -19 -10 -313 -295 -652 -634
l-617 -616 -3 405 -3 404 -25 50 c-31 64 -91 124 -155 155 -72 35 -198 35
-270 0 -64 -31 -124 -91 -155 -155 l-25 -50 0 -835 0 -835 25 -50 c31 -64 91
-124 155 -155 l50 -25 835 0 835 0 50 25 c64 31 124 92 155 155 34 72 34 198
0 270 -31 63 -91 124 -155 155 l-50 25 -404 3 -405 3 621 622 c696 698 667
664 667 807 0 56 -5 88 -22 126 -29 64 -102 136 -166 165 -61 26 -157 34 -211
16z"/>
</g>
</svg>
